
      <svg data-logo="logo" xmlns="http://www.w3.org/2000/svg" viewBox="0 0 297 43">
        <g id="logogram" transform="translate(0, 1) rotate(0) "><path d="M40.1509 20.27C40.1509 31.3157 31.1966 40.27 20.1509 40.27C9.10524 40.27 0.150879 31.3157 0.150879 20.27C0.150879 9.2243 9.10524 0.269989 20.1509 0.269989C31.1966 0.269989 40.1509 9.2243 40.1509 20.27Z" fill="#68DBFF"/><path d="M63.1509 20.27C63.1509 31.3157 54.1964 40.27 43.1508 40.27C32.1052 40.27 23.1509 31.3157 23.1509 20.27C23.1509 9.2243 32.1052 0.269989 43.1508 0.269989C54.1964 0.269989 63.1509 9.2243 63.1509 20.27Z" fill="#FF7917"/><path fill-rule="evenodd" clip-rule="evenodd" d="M31.6509 36.6351C36.792 33.0157 40.1509 27.0351 40.1509 20.27C40.1509 13.5049 36.792 7.52425 31.6509 3.90488C26.5098 7.52425 23.1509 13.5049 23.1509 20.27C23.1509 27.0351 26.5098 33.0157 31.6509 36.6351Z" fill="#5D2C02"/></g>
        <g id="logotype" transform="translate(70, 8.5)"><path fill="#9929EA" d="M12.60 26L6.84 26L15.54 0.54L22.37 0.54L31.29 26L25.50 26L21.42 13.71Q20.68 11.34 19.92 8.51Q19.16 5.68 18.32 2.33L18.32 2.33L19.45 2.33Q18.65 5.70 17.94 8.54Q17.23 11.39 16.53 13.71L16.53 13.71L12.60 26ZM25.86 20.09L12.27 20.09L12.27 16.00L25.86 16.00L25.86 20.09ZM38.62 26.24L38.62 26.24Q36.64 26.24 35.15 25.38Q33.67 24.51 32.85 22.90Q32.04 21.28 32.04 19.04L32.04 19.04L32.04 6.89L37.17 6.89L37.17 18.16Q37.17 19.93 38.09 20.94Q39.02 21.95 40.62 21.95L40.62 21.95Q41.72 21.95 42.55 21.48Q43.39 21.01 43.86 20.11Q44.33 19.22 44.33 17.95L44.33 17.95L44.33 6.89L49.46 6.89L49.46 26L44.62 26L44.55 21.23L44.84 21.23Q44.09 23.64 42.54 24.94Q41.00 26.24 38.62 26.24ZM49.71 6.89L61.04 6.89L61.04 10.81L49.71 10.81L49.71 6.89ZM52.34 20.86L52.34 2.35L57.47 2.35L57.47 20.41Q57.47 21.32 57.87 21.75Q58.27 22.19 59.21 22.19L59.21 22.19Q59.50 22.19 60.03 22.11Q60.56 22.04 60.84 21.97L60.84 21.97L61.57 25.81Q60.72 26.07 59.87 26.17Q59.03 26.27 58.26 26.27L58.26 26.27Q55.39 26.27 53.86 24.87Q52.34 23.47 52.34 20.86L52.34 20.86ZM70.64 26.38L70.64 26.38Q67.77 26.38 65.67 25.14Q63.57 23.90 62.43 21.68Q61.30 19.47 61.30 16.53L61.30 16.53Q61.30 13.56 62.43 11.35Q63.57 9.13 65.67 7.89Q67.77 6.65 70.64 6.65L70.64 6.65Q73.53 6.65 75.63 7.89Q77.72 9.13 78.86 11.35Q79.99 13.56 79.99 16.53L79.99 16.53Q79.99 19.47 78.86 21.68Q77.72 23.90 75.63 25.14Q73.53 26.38 70.64 26.38ZM70.64 22.34L70.64 22.34Q72.01 22.34 72.93 21.58Q73.86 20.82 74.32 19.50Q74.78 18.17 74.78 16.52L74.78 16.52Q74.78 14.82 74.32 13.51Q73.86 12.19 72.93 11.44Q72.01 10.69 70.64 10.69L70.64 10.69Q69.28 10.69 68.36 11.44Q67.45 12.19 66.99 13.51Q66.53 14.82 66.53 16.52L66.53 16.52Q66.53 18.17 66.99 19.50Q67.45 20.82 68.36 21.58Q69.28 22.34 70.64 22.34ZM85.70 26L79.94 26L88.64 0.54L95.47 0.54L104.40 26L98.60 26L94.52 13.71Q93.78 11.34 93.02 8.51Q92.26 5.68 91.42 2.33L91.42 2.33L92.55 2.33Q91.75 5.70 91.04 8.54Q90.33 11.39 89.63 13.71L89.63 13.71L85.70 26ZM98.96 20.09L85.37 20.09L85.37 16.00L98.96 16.00L98.96 20.09ZM105.26 0.54L110.48 0.54L110.48 26L105.26 26L105.26 0.54ZM124.01 26L118.83 26L118.83 0.54L126.83 0.54L130.96 12.23Q131.22 13.05 131.55 14.34Q131.89 15.64 132.23 17.15Q132.57 18.65 132.87 20.07Q133.17 21.49 133.36 22.53L133.36 22.53L132.35 22.53Q132.54 21.51 132.84 20.10Q133.13 18.69 133.48 17.18Q133.82 15.68 134.15 14.36Q134.48 13.05 134.74 12.23L134.74 12.23L138.81 0.54L146.84 0.54L146.84 26L141.59 26L141.59 13.99Q141.59 13.17 141.63 11.92Q141.66 10.67 141.70 9.23Q141.73 7.78 141.76 6.32Q141.80 4.86 141.82 3.56L141.82 3.56L142.14 3.56Q141.82 4.98 141.42 6.49Q141.03 8.00 140.63 9.42Q140.23 10.84 139.87 12.03Q139.51 13.22 139.25 13.99L139.25 13.99L135.03 26L130.64 26L126.35 13.99Q126.09 13.22 125.73 12.05Q125.38 10.88 124.97 9.46Q124.57 8.04 124.16 6.53Q123.75 5.01 123.38 3.56L123.38 3.56L123.79 3.56Q123.80 4.79 123.84 6.24Q123.87 7.70 123.91 9.16Q123.96 10.62 123.98 11.88Q124.01 13.13 124.01 13.99L124.01 13.99L124.01 26ZM154.37 26.38L154.37 26.38Q152.56 26.38 151.12 25.74Q149.67 25.09 148.85 23.82Q148.02 22.55 148.02 20.65L148.02 20.65Q148.02 19.06 148.61 17.98Q149.20 16.91 150.21 16.26Q151.23 15.61 152.52 15.27Q153.81 14.93 155.23 14.79L155.23 14.79Q156.89 14.62 157.90 14.47Q158.92 14.33 159.39 14.01Q159.86 13.70 159.86 13.08L159.86 13.08L159.86 12.99Q159.86 12.17 159.52 11.61Q159.18 11.05 158.51 10.75Q157.84 10.45 156.87 10.45L156.87 10.45Q155.88 10.45 155.14 10.75Q154.41 11.05 153.95 11.54Q153.49 12.04 153.26 12.65L153.26 12.65L148.56 11.87Q149.06 10.21 150.20 9.05Q151.35 7.88 153.05 7.27Q154.75 6.65 156.87 6.65L156.87 6.65Q158.42 6.65 159.88 7.02Q161.33 7.39 162.48 8.16Q163.64 8.93 164.31 10.16Q164.99 11.39 164.99 13.13L164.99 13.13L164.99 26L160.13 26L160.13 23.35L159.96 23.35Q159.50 24.24 158.73 24.91Q157.96 25.59 156.88 25.98Q155.79 26.38 154.37 26.38ZM155.83 22.77L155.83 22.77Q157.04 22.77 157.96 22.29Q158.87 21.81 159.38 20.99Q159.89 20.17 159.89 19.16L159.89 19.16L159.89 17.10Q159.67 17.27 159.21 17.40Q158.75 17.54 158.19 17.64Q157.62 17.75 157.07 17.83Q156.53 17.92 156.10 17.97L156.10 17.97Q155.16 18.10 154.44 18.41Q153.73 18.72 153.33 19.22Q152.94 19.73 152.94 20.51L152.94 20.51Q152.94 21.25 153.32 21.75Q153.69 22.26 154.33 22.51Q154.97 22.77 155.83 22.77ZM172.21 26L167.09 26L167.09 6.89L172.04 6.89L172.04 10.23L172.25 10.23Q172.78 8.45 174.02 7.54Q175.26 6.64 176.86 6.64L176.86 6.64Q177.26 6.64 177.71 6.68Q178.16 6.72 178.52 6.81L178.52 6.81L178.52 11.39Q178.18 11.27 177.53 11.20Q176.88 11.13 176.30 11.13L176.30 11.13Q175.14 11.13 174.20 11.64Q173.26 12.14 172.74 13.04Q172.21 13.93 172.21 15.13L172.21 15.13L172.21 26ZM187.20 16.48L183.71 20.41L183.71 14.24L184.48 14.24L190.74 6.89L196.67 6.89L188.41 16.48L187.20 16.48ZM184.19 26L179.07 26L179.07 0.54L184.19 0.54L184.19 26ZM197.03 26L190.99 26L185.25 17.63L188.69 13.99L197.03 26ZM205.72 26.38L205.72 26.38Q202.80 26.38 200.68 25.18Q198.56 23.98 197.43 21.78Q196.29 19.57 196.29 16.55L196.29 16.55Q196.29 13.59 197.42 11.37Q198.55 9.15 200.61 7.90Q202.68 6.65 205.47 6.65L205.47 6.65Q207.35 6.65 208.97 7.25Q210.59 7.85 211.82 9.06Q213.06 10.26 213.75 12.07Q214.44 13.88 214.44 16.34L214.44 16.34L214.44 17.78L198.39 17.78L198.39 14.57L211.93 14.57L209.53 15.42Q209.53 13.93 209.08 12.83Q208.63 11.73 207.73 11.12Q206.83 10.52 205.50 10.52L205.50 10.52Q204.19 10.52 203.25 11.13Q202.32 11.75 201.84 12.80Q201.37 13.85 201.37 15.20L201.37 15.20L201.37 17.47Q201.37 19.13 201.92 20.26Q202.48 21.39 203.48 21.95Q204.48 22.51 205.81 22.51L205.81 22.51Q206.71 22.51 207.45 22.26Q208.18 22.00 208.71 21.50Q209.23 20.99 209.50 20.26L209.50 20.26L214.15 21.13Q213.69 22.70 212.54 23.89Q211.40 25.08 209.68 25.73Q207.96 26.38 205.72 26.38ZM213.82 6.89L225.15 6.89L225.15 10.81L213.82 10.81L213.82 6.89ZM216.45 20.86L216.45 2.35L221.58 2.35L221.58 20.41Q221.58 21.32 221.98 21.75Q222.38 22.19 223.32 22.19L223.32 22.19Q223.61 22.19 224.14 22.11Q224.67 22.04 224.95 21.97L224.95 21.97L225.68 25.81Q224.83 26.07 223.98 26.17Q223.14 26.27 222.37 26.27L222.37 26.27Q219.50 26.27 217.97 24.87Q216.45 23.47 216.45 20.86L216.45 20.86Z"/></g>
        
      </svg>
    